<svg xmlns="http://www.w3.org/2000/svg" viewBox="0 0 100 100">
<rect x="0" y="0" width="100" height="100" fill="white" stroke="black" stroke-width="0.5"/>
<line x1="35" y1="0" x2="35" y2="100" stroke="blue" stroke-width="0.6"/>
<line x1="0" y1="25" x2="35" y2="25" stroke="red" stroke-width="0.6"/>
<line x1="10" y1="0" x2="10" y2="25" stroke="blue" stroke-width="0.6"/>
<circle cx="10" cy="12" r="1.5" fill="black"/>
<text x="12" y="10" font-size="3">(10,12)</text>
<line x1="20" y1="25" x2="20" y2="100" stroke="blue" stroke-width="0.6"/>
<line x1="0" y1="35" x2="20" y2="35" stroke="red" stroke-width="0.6"/>
<circle cx="15" cy="35" r="1.5" fill="black"/>
<text x="17" y="33" font-size="3">(15,35)</text>
<line x1="20" y1="55" x2="35" y2="55" stroke="red" stroke-width="0.6"/>
<circle cx="25" cy="55" r="1.5" fill="black"/>
<text x="27" y="53" font-size="3">(25,55)</text>
<circle cx="20" cy="90" r="1.5" fill="black"/>
<text x="22" y="88" font-size="3">(20,90)</text>
<circle cx="5" cy="25" r="1.5" fill="black"/>
<text x="7" y="23" font-size="3">(5,25)</text>
<line x1="35" y1="70" x2="100" y2="70" stroke="red" stroke-width="0.6"/>
<line x1="50" y1="0" x2="50" y2="70" stroke="blue" stroke-width="0.6"/>
<line x1="50" y1="15" x2="100" y2="15" stroke="red" stroke-width="0.6"/>
<line x1="55" y1="0" x2="55" y2="15" stroke="blue" stroke-width="0.6"/>
<circle cx="55" cy="5" r="1.5" fill="black"/>
<text x="57" y="3" font-size="3">(55,5)</text>
<line x1="60" y1="15" x2="60" y2="70" stroke="blue" stroke-width="0.6"/>
<line x1="60" y1="40" x2="100" y2="40" stroke="red" stroke-width="0.6"/>
<circle cx="85" cy="40" r="1.5" fill="black"/>
<text x="87" y="38" font-size="3">(85,40)</text>
<circle cx="60" cy="60" r="1.5" fill="black"/>
<text x="62" y="58" font-size="3">(60,60)</text>
<circle cx="80" cy="15" r="1.5" fill="black"/>
<text x="82" y="13" font-size="3">(80,15)</text>
<circle cx="50" cy="30" r="1.5" fill="black"/>
<text x="52" y="28" font-size="3">(50,30)</text>
<line x1="95" y1="70" x2="95" y2="100" stroke="blue" stroke-width="0.6"/>
<line x1="35" y1="75" x2="95" y2="75" stroke="red" stroke-width="0.6"/>
<circle cx="45" cy="75" r="1.5" fill="black"/>
<text x="47" y="73" font-size="3">(45,75)</text>
<circle cx="95" cy="85" r="1.5" fill="black"/>
<text x="97" y="83" font-size="3">(95,85)</text>
<circle cx="70" cy="70" r="1.5" fill="black"/>
<text x="72" y="68" font-size="3">(70,70)</text>
<circle cx="35" cy="45" r="1.5" fill="black"/>
<text x="37" y="43" font-size="3">(35,45)</text>
</svg>
